# xmcd
#
# Track frame offsets: 
#        150
#        4869
#        6654
#        10199
#        13767
#        17393
#        18830
#        21293
#        23592
#        25068
#        26879
#        28472
#        36091
#        38454
#        40585
#        49937
#        51469
#        62421
#        66247
#        69638
#        83885
#
# Disc length: 1199 seconds
#
# Revision: 0
# Processed by: cddbd v1.5.2PL0 Copyright (c) Steve Scherf et al.
# Submitted via: ExactAudioCopy v1.0b1
#
DISCID=0404ad15
DTITLE=Justin Fletcher - Sing Along With Justin Fletcher
DYEAR=2009
DGENRE=Childrens
TTITLE0=Let's Sing Nursery Rhymes
TTITLE1=Incy Wincy Spider
TTITLE2=I'm a Little Teapot
TTITLE3=Sing a Song of Sixpence
TTITLE4=Mary, Mary Quite Contrary
TTITLE5=Georgie Porgie
TTITLE6=Hickory Dickory Dock
TTITLE7=Old King Cole
TTITLE8=Humpty Dumpty
TTITLE9=Little Miss Muffet
TTITLE10=Jack and Jill
TTITLE11=The Grand Old Duke of York
TTITLE12=Polly Put the Kettle On
TTITLE13=Simple Simon
TTITLE14=5 Custard Pies
TTITLE15=There Was an Old Woman Who Lived in a Shoe
TTITLE16=Old MacDonald
TTITLE17=Little Bo Peep
TTITLE18=Once I Caught a Fish Alive
TTITLE19=There Was a Princess Long Ago
TTITLE20=Twinkle, Twinkle, Little Star
EXTD=
EXTT0=
EXTT1=
EXTT2=
EXTT3=
EXTT4=
EXTT5=
EXTT6=
EXTT7=
EXTT8=
EXTT9=
EXTT10=
EXTT11=
EXTT12=
EXTT13=
EXTT14=
EXTT15=
EXTT16=
EXTT17=
EXTT18=
EXTT19=
EXTT20=
PLAYORDER=
